<svg width="21" height="20" viewBox="0 0 21 20" fill="none" xmlns="http://www.w3.org/2000/svg">
<path d="M12.7258 0H7.42255C6.7558 0 6.21533 0.540503 6.21533 1.20722V2.77662H7.42255V1.4487C7.42255 1.31534 7.53063 1.20725 7.66399 1.20725H12.4843C12.6177 1.20725 12.7258 1.31534 12.7258 1.4487V2.77665H13.933V1.20722C13.933 0.540503 13.3925 0 12.7258 0Z" fill="url(#paint0_linear_11_1119)"/>
<path d="M0.677979 11.9925L2.27605 19.0595C2.40046 19.6098 2.8894 20.0005 3.45354 20.0005H16.695C17.2591 20.0005 17.7481 19.6098 17.8725 19.0595L19.4705 11.9925V10.1817L17.8848 3.69777C17.7527 3.15742 17.2684 2.77734 16.7121 2.77734H3.45354C2.8894 2.77734 2.40046 3.16804 2.27605 3.71831L0.677979 10.7853V11.9925Z" fill="url(#paint1_linear_11_1119)"/>
<path d="M17.8846 3.69777C17.7525 3.15742 17.2682 2.77734 16.7119 2.77734H16.5492C16.6055 2.87469 16.6496 2.98062 16.6774 3.09418L17.8329 7.8191C18.1187 8.98752 18.5185 10.2135 18.2631 11.3889C17.2469 16.0655 13.1041 19.4048 8.31688 19.4013C6.34717 19.3998 4.37746 19.3984 2.40771 19.3969C2.61892 19.7627 3.01322 20.0005 3.45333 20.0005H16.6948C17.2589 20.0005 17.7479 19.6098 17.8723 19.0595L19.4703 11.9925V10.1817L17.8846 3.69777Z" fill="url(#paint2_linear_11_1119)"/>
<path d="M10.0741 8.39724C9.74073 8.39724 9.47046 8.12697 9.47046 7.79361V5.76769C9.47046 5.43433 9.74073 5.16406 10.0741 5.16406C10.4074 5.16406 10.6777 5.43433 10.6777 5.76769V7.79361C10.6777 8.12697 10.4074 8.39724 10.0741 8.39724Z" fill="#FFF9E2"/>
<path d="M14.2992 8.39754C14.0391 8.39754 13.799 8.22813 13.721 7.96614L13.1173 5.94022C13.0221 5.62073 13.204 5.28456 13.5235 5.18937C13.843 5.09413 14.1791 5.27601 14.2743 5.5955L14.8779 7.62142C14.9731 7.94091 14.7913 8.27707 14.4718 8.37227C14.4143 8.38938 14.3563 8.39754 14.2992 8.39754Z" fill="#FFF9E2"/>
<path d="M5.84915 8.39754C5.79208 8.39754 5.73408 8.38938 5.67654 8.37227C5.35705 8.27707 5.17521 7.94091 5.27041 7.62142L5.87404 5.5955C5.96923 5.27601 6.30536 5.09413 6.62489 5.18937C6.94438 5.28456 7.12621 5.62073 7.03102 5.94022L6.42739 7.9661C6.34934 8.22809 6.10923 8.39754 5.84915 8.39754Z" fill="#FFF9E2"/>
<path d="M10.0741 17.3103C9.74073 17.3103 9.47046 17.0401 9.47046 16.7067V14.6808C9.47046 14.3474 9.74073 14.0771 10.0741 14.0771C10.4074 14.0771 10.6777 14.3474 10.6777 14.6808V16.7067C10.6777 17.0401 10.4074 17.3103 10.0741 17.3103Z" fill="#FFF9E2"/>
<path d="M13.696 17.3106C13.639 17.3106 13.581 17.3024 13.5235 17.2853C13.204 17.1901 13.0221 16.8539 13.1173 16.5345L13.721 14.5085C13.8162 14.1891 14.1522 14.0073 14.4718 14.1024C14.7913 14.1976 14.9731 14.5338 14.8779 14.8533L14.2743 16.8792C14.1962 17.1412 13.9561 17.3106 13.696 17.3106Z" fill="#FFF9E2"/>
<path d="M6.45227 17.3116C6.1922 17.3116 5.95208 17.1422 5.87404 16.8802L5.27041 14.8543C5.17521 14.5348 5.35705 14.1987 5.67654 14.1035C5.99607 14.0081 6.33216 14.1901 6.42739 14.5096L7.03102 16.5355C7.12621 16.855 6.94438 17.1912 6.62489 17.2864C6.56735 17.3035 6.5093 17.3116 6.45227 17.3116Z" fill="#FFF9E2"/>
<path d="M19.6716 11.9915H0.476637C0.254373 11.9915 0.0742188 11.8114 0.0742188 11.5891V10.5831C0.0742188 10.3608 0.254373 10.1807 0.476637 10.1807H19.6716C19.8939 10.1807 20.074 10.3608 20.074 10.5831V11.5891C20.074 11.8114 19.8939 11.9915 19.6716 11.9915Z" fill="white"/>
<path d="M11.8257 12.4481H8.32258C8.10032 12.4481 7.92017 12.268 7.92017 12.0457V10.128C7.92017 9.90574 8.10032 9.72559 8.32258 9.72559H11.8257C12.048 9.72559 12.2281 9.90574 12.2281 10.128V12.0457C12.2281 12.268 12.0479 12.4481 11.8257 12.4481Z" fill="#FFE5AC"/>
<path d="M11.8257 9.72559H11.0209C11.0209 10.8958 10.0722 11.8445 8.90199 11.8445H7.92017V12.0457C7.92017 12.2679 8.10032 12.4481 8.32258 12.4481H11.8257C12.048 12.4481 12.2281 12.2679 12.2281 12.0457V10.128C12.2281 9.90578 12.048 9.72559 11.8257 9.72559Z" fill="#FFF6E1"/>
<defs>
<linearGradient id="paint0_linear_11_1119" x1="10.0742" y1="0" x2="10.0742" y2="2.77665" gradientUnits="userSpaceOnUse">
<stop stop-color="#FFD986"/>
<stop offset="1" stop-color="#FABF3E"/>
</linearGradient>
<linearGradient id="paint1_linear_11_1119" x1="10.0743" y1="2.77734" x2="10.0743" y2="20.0005" gradientUnits="userSpaceOnUse">
<stop stop-color="#FFD986"/>
<stop offset="1" stop-color="#FABF3E"/>
</linearGradient>
<linearGradient id="paint2_linear_11_1119" x1="18.5" y1="4.5" x2="10.939" y2="20.0005" gradientUnits="userSpaceOnUse">
<stop stop-color="#FFD984"/>
<stop offset="1" stop-color="#F5B42A"/>
</linearGradient>
</defs>
</svg>
