<svg width="19" height="19" viewBox="0 0 19 19" fill="none" xmlns="http://www.w3.org/2000/svg">
<path fill-rule="evenodd" clip-rule="evenodd" d="M0.231796 6.52232C-0.026647 6.71926 -0.0765301 7.08844 0.120379 7.34692C0.317288 7.6054 0.686423 7.65529 0.944866 7.45835L1.40679 7.10636L2.15032 17.5114C2.17232 17.8192 2.4285 18.0578 2.73716 18.0578H15.2477C15.5563 18.0578 15.8125 17.8192 15.8345 17.5114L16.5842 7.02043L17.1716 7.46104C17.4315 7.65601 17.8002 7.60333 17.9952 7.34337C18.1901 7.0834 18.1375 6.71461 17.8775 6.51963L9.34274 0.117676C9.13225 -0.0402163 8.84252 -0.039119 8.63322 0.120364L0.231796 6.52232Z" fill="url(#paint0_linear_11_1141)"/>
<path fill-rule="evenodd" clip-rule="evenodd" d="M9.58756 5.0899C9.58756 5.38226 9.35056 5.61926 9.05821 5.61926C8.76585 5.61926 8.52885 5.38226 8.52885 5.0899C8.52885 4.79755 8.76585 4.56055 9.05821 4.56055C9.35056 4.56055 9.58756 4.79755 9.58756 5.0899ZM11.4402 8.26618C11.4402 9.14325 10.3144 9.85425 8.92572 9.85425C7.53704 9.85425 6.41128 9.14325 6.41128 8.26618C6.41128 7.38911 7.53704 6.67811 8.92572 6.67811C10.3144 6.67811 11.4402 7.38911 11.4402 8.26618ZM11.1756 6.14821C11.4679 6.14821 11.7049 5.91121 11.7049 5.61885C11.7049 5.3265 11.4679 5.0895 11.1756 5.0895C10.8832 5.0895 10.6462 5.3265 10.6462 5.61885C10.6462 5.91121 10.8832 6.14821 11.1756 6.14821ZM7.47 5.61885C7.47 5.91121 7.233 6.14821 6.94064 6.14821C6.64829 6.14821 6.41128 5.91121 6.41128 5.61885C6.41128 5.3265 6.64829 5.0895 6.94064 5.0895C7.233 5.0895 7.47 5.3265 7.47 5.61885ZM9.05803 10.6474C7.01154 10.6474 5.35254 12.3064 5.35254 14.3529V18.0584H12.7635V14.3529C12.7635 12.3064 11.1045 10.6474 9.05803 10.6474Z" fill="url(#paint1_linear_11_1141)"/>
<defs>
<linearGradient id="paint0_linear_11_1141" x1="9.05644" y1="0" x2="9.05644" y2="18.0578" gradientUnits="userSpaceOnUse">
<stop stop-color="#4C9EE2"/>
<stop offset="1" stop-color="#73BFFF"/>
</linearGradient>
<linearGradient id="paint1_linear_11_1141" x1="9.05803" y1="4.56055" x2="9.05803" y2="18.0584" gradientUnits="userSpaceOnUse">
<stop stop-color="white"/>
<stop offset="1" stop-color="white" stop-opacity="0.59"/>
</linearGradient>
</defs>
</svg>
